<svg xmlns="http://www.w3.org/2000/svg" width="400" height="300" viewBox="0 0 400 300" font-family="-apple-system,'PingFang SC','Noto Sans SC',sans-serif">
  <defs>
    <linearGradient id="g" x1="0" y1="0" x2="0" y2="1">
      <stop offset="0" stop-color="#0b4f6c"/>
      <stop offset="0.55" stop-color="#1b8a9e"/>
      <stop offset="1" stop-color="#7fd1d8"/>
    </linearGradient>
    <linearGradient id="shade" x1="0" y1="0" x2="0" y2="1">
      <stop offset="0" stop-color="#000" stop-opacity="0"/>
      <stop offset="1" stop-color="#000" stop-opacity="0.45"/>
    </linearGradient>
  </defs>
  <rect width="400" height="300" fill="url(#g)"/>
  <circle cx="330" cy="70" r="34" fill="#fff" opacity="0.16"/>
  <path d="M0,300 L0,240 L0,230 L35,231 L70,244 L105,253 L140,242 L175,227 L210,224 L245,249 L280,254 L315,255 L350,236 L385,245 L420,234 L420,300 Z" fill="#000" opacity="0.10"/>
  <path d="M0,300 L0,205 L0,218 L35,195 L70,196 L105,189 L140,190 L175,183 L210,184 L245,213 L280,226 L315,199 L350,212 L385,209 L420,218 L420,300 Z" fill="#000" opacity="0.16"/>
  <text x="28" y="120" font-size="86" opacity="0.92">🌊</text>
  <rect width="400" height="300" fill="url(#shade)"/>
  <text x="28" y="250" fill="#fff" font-size="30" font-weight="700">艺术家点·黄石大峡谷</text>
  <text x="28" y="278" fill="#fff" font-size="15" opacity="0.85">Artist Point, Grand Canyon of the Yellowstone</text>
</svg>
