<svg xmlns="http://www.w3.org/2000/svg" width="400" height="300" viewBox="0 0 400 300" font-family="-apple-system,'PingFang SC','Noto Sans SC',sans-serif">
  <defs>
    <linearGradient id="g" x1="0" y1="0" x2="0" y2="1">
      <stop offset="0" stop-color="#4a2c5a"/>
      <stop offset="0.55" stop-color="#7d4a8c"/>
      <stop offset="1" stop-color="#c79bd6"/>
    </linearGradient>
    <linearGradient id="shade" x1="0" y1="0" x2="0" y2="1">
      <stop offset="0" stop-color="#000" stop-opacity="0"/>
      <stop offset="1" stop-color="#000" stop-opacity="0.45"/>
    </linearGradient>
  </defs>
  <rect width="400" height="300" fill="url(#g)"/>
  <circle cx="330" cy="70" r="34" fill="#fff" opacity="0.16"/>
  <path d="M0,300 L0,240 L0,242 L35,227 L70,224 L105,249 L140,254 L175,255 L210,236 L245,245 L280,234 L315,251 L350,248 L385,241 L420,246 L420,300 Z" fill="#000" opacity="0.10"/>
  <path d="M0,300 L0,205 L0,223 L35,192 L70,197 L105,194 L140,183 L175,204 L210,193 L245,214 L280,203 L315,196 L350,193 L385,222 L420,207 L420,300 Z" fill="#000" opacity="0.16"/>
  <text x="28" y="120" font-size="86" opacity="0.92">📖</text>
  <rect width="400" height="300" fill="url(#shade)"/>
  <text x="28" y="250" fill="#fff" font-size="30" font-weight="700">一九八八年大火</text>
  <text x="28" y="278" fill="#fff" font-size="15" opacity="0.85">The Fires of 1988</text>
</svg>
