<svg xmlns="http://www.w3.org/2000/svg" width="400" height="300" viewBox="0 0 400 300" font-family="-apple-system,'PingFang SC','Noto Sans SC',sans-serif">
  <defs>
    <linearGradient id="g" x1="0" y1="0" x2="0" y2="1">
      <stop offset="0" stop-color="#14342b"/>
      <stop offset="0.55" stop-color="#2c6e57"/>
      <stop offset="1" stop-color="#6fae86"/>
    </linearGradient>
    <linearGradient id="shade" x1="0" y1="0" x2="0" y2="1">
      <stop offset="0" stop-color="#000" stop-opacity="0"/>
      <stop offset="1" stop-color="#000" stop-opacity="0.45"/>
    </linearGradient>
  </defs>
  <rect width="400" height="300" fill="url(#g)"/>
  <circle cx="330" cy="70" r="34" fill="#fff" opacity="0.16"/>
  <path d="M0,300 L0,240 L0,232 L35,225 L70,230 L105,231 L140,244 L175,253 L210,242 L245,227 L280,224 L315,249 L350,254 L385,255 L420,236 L420,300 Z" fill="#000" opacity="0.10"/>
  <path d="M0,300 L0,205 L0,218 L35,223 L70,204 L105,217 L140,222 L175,195 L210,188 L245,205 L280,218 L315,219 L350,212 L385,213 L420,218 L420,300 Z" fill="#000" opacity="0.16"/>
  <text x="28" y="120" font-size="86" opacity="0.92">🏞️</text>
  <rect width="400" height="300" fill="url(#shade)"/>
  <text x="28" y="250" fill="#fff" font-size="30" font-weight="700">钓鱼桥</text>
  <text x="28" y="278" fill="#fff" font-size="15" opacity="0.85">Fishing Bridge</text>
</svg>
