<svg xmlns="http://www.w3.org/2000/svg" width="400" height="300" viewBox="0 0 400 300" font-family="-apple-system,'PingFang SC','Noto Sans SC',sans-serif">
  <defs>
    <linearGradient id="g" x1="0" y1="0" x2="0" y2="1">
      <stop offset="0" stop-color="#c1440e"/>
      <stop offset="0.55" stop-color="#e8743d"/>
      <stop offset="1" stop-color="#f4c675"/>
    </linearGradient>
    <linearGradient id="shade" x1="0" y1="0" x2="0" y2="1">
      <stop offset="0" stop-color="#000" stop-opacity="0"/>
      <stop offset="1" stop-color="#000" stop-opacity="0.45"/>
    </linearGradient>
  </defs>
  <rect width="400" height="300" fill="url(#g)"/>
  <circle cx="330" cy="70" r="34" fill="#fff" opacity="0.16"/>
  <path d="M0,300 L0,240 L0,245 L35,234 L70,251 L105,248 L140,241 L175,246 L210,247 L245,228 L280,237 L315,226 L350,243 L385,240 L420,233 L420,300 Z" fill="#000" opacity="0.10"/>
  <path d="M0,300 L0,205 L0,187 L35,208 L70,185 L105,198 L140,223 L175,184 L210,217 L245,214 L280,223 L315,224 L350,193 L385,226 L420,223 L420,300 Z" fill="#000" opacity="0.16"/>
  <text x="28" y="120" font-size="86" opacity="0.92">♨️</text>
  <rect width="400" height="300" fill="url(#shade)"/>
  <text x="28" y="250" fill="#fff" font-size="30" font-weight="700">猛犸热泉</text>
  <text x="28" y="278" fill="#fff" font-size="15" opacity="0.85">Mammoth Hot Springs</text>
</svg>
