<svg xmlns="http://www.w3.org/2000/svg" width="400" height="300" viewBox="0 0 400 300" font-family="-apple-system,'PingFang SC','Noto Sans SC',sans-serif">
  <defs>
    <linearGradient id="g" x1="0" y1="0" x2="0" y2="1">
      <stop offset="0" stop-color="#1b6ca8"/>
      <stop offset="0.55" stop-color="#2a9d8f"/>
      <stop offset="1" stop-color="#8fd3c7"/>
    </linearGradient>
    <linearGradient id="shade" x1="0" y1="0" x2="0" y2="1">
      <stop offset="0" stop-color="#000" stop-opacity="0"/>
      <stop offset="1" stop-color="#000" stop-opacity="0.45"/>
    </linearGradient>
  </defs>
  <rect width="400" height="300" fill="url(#g)"/>
  <circle cx="330" cy="70" r="34" fill="#fff" opacity="0.16"/>
  <path d="M0,300 L0,240 L0,243 L35,240 L70,233 L105,238 L140,239 L175,252 L210,229 L245,250 L280,235 L315,232 L350,225 L385,230 L420,231 L420,300 Z" fill="#000" opacity="0.10"/>
  <path d="M0,300 L0,205 L0,219 L35,224 L70,205 L105,190 L140,223 L175,220 L210,197 L245,190 L280,211 L315,208 L350,197 L385,186 L420,183 L420,300 Z" fill="#000" opacity="0.16"/>
  <text x="28" y="120" font-size="86" opacity="0.92">⛲</text>
  <rect width="400" height="300" fill="url(#shade)"/>
  <text x="28" y="250" fill="#fff" font-size="30" font-weight="700">诺里斯间歇泉盆地</text>
  <text x="28" y="278" fill="#fff" font-size="15" opacity="0.85">Norris Geyser Basin</text>
</svg>
