<svg xmlns="http://www.w3.org/2000/svg" width="400" height="300" viewBox="0 0 400 300" font-family="-apple-system,'PingFang SC','Noto Sans SC',sans-serif">
  <defs>
    <linearGradient id="g" x1="0" y1="0" x2="0" y2="1">
      <stop offset="0" stop-color="#1b6ca8"/>
      <stop offset="0.55" stop-color="#2a9d8f"/>
      <stop offset="1" stop-color="#8fd3c7"/>
    </linearGradient>
    <linearGradient id="shade" x1="0" y1="0" x2="0" y2="1">
      <stop offset="0" stop-color="#000" stop-opacity="0"/>
      <stop offset="1" stop-color="#000" stop-opacity="0.45"/>
    </linearGradient>
  </defs>
  <rect width="400" height="300" fill="url(#g)"/>
  <circle cx="330" cy="70" r="34" fill="#fff" opacity="0.16"/>
  <path d="M0,300 L0,240 L0,246 L35,247 L70,228 L105,237 L140,226 L175,243 L210,240 L245,233 L280,238 L315,239 L350,252 L385,229 L420,250 L420,300 Z" fill="#000" opacity="0.10"/>
  <path d="M0,300 L0,205 L0,198 L35,219 L70,196 L105,201 L140,222 L175,203 L210,184 L245,189 L280,198 L315,199 L350,220 L385,197 L420,198 L420,300 Z" fill="#000" opacity="0.16"/>
  <text x="28" y="120" font-size="86" opacity="0.92">⛲</text>
  <rect width="400" height="300" fill="url(#shade)"/>
  <text x="28" y="250" fill="#fff" font-size="30" font-weight="700">老忠实间歇泉</text>
  <text x="28" y="278" fill="#fff" font-size="15" opacity="0.85">Old Faithful</text>
</svg>
