<svg xmlns="http://www.w3.org/2000/svg" width="400" height="300" viewBox="0 0 400 300" font-family="-apple-system,'PingFang SC','Noto Sans SC',sans-serif">
  <defs>
    <linearGradient id="g" x1="0" y1="0" x2="0" y2="1">
      <stop offset="0" stop-color="#0b4f6c"/>
      <stop offset="0.55" stop-color="#1b8a9e"/>
      <stop offset="1" stop-color="#7fd1d8"/>
    </linearGradient>
    <linearGradient id="shade" x1="0" y1="0" x2="0" y2="1">
      <stop offset="0" stop-color="#000" stop-opacity="0"/>
      <stop offset="1" stop-color="#000" stop-opacity="0.45"/>
    </linearGradient>
  </defs>
  <rect width="400" height="300" fill="url(#g)"/>
  <circle cx="330" cy="70" r="34" fill="#fff" opacity="0.16"/>
  <path d="M0,300 L0,240 L0,232 L35,225 L70,230 L105,231 L140,244 L175,253 L210,242 L245,227 L280,224 L315,249 L350,254 L385,255 L420,236 L420,300 Z" fill="#000" opacity="0.10"/>
  <path d="M0,300 L0,205 L0,198 L35,219 L70,220 L105,193 L140,222 L175,195 L210,208 L245,197 L280,194 L315,199 L350,220 L385,213 L420,222 L420,300 Z" fill="#000" opacity="0.16"/>
  <text x="28" y="120" font-size="86" opacity="0.92">🌊</text>
  <rect width="400" height="300" fill="url(#shade)"/>
  <text x="28" y="250" fill="#fff" font-size="30" font-weight="700">温丁瀑布</text>
  <text x="28" y="278" fill="#fff" font-size="15" opacity="0.85">Undine Falls</text>
</svg>
