<svg xmlns="http://www.w3.org/2000/svg" width="400" height="300" viewBox="0 0 400 300" font-family="-apple-system,'PingFang SC','Noto Sans SC',sans-serif">
  <defs>
    <linearGradient id="g" x1="0" y1="0" x2="0" y2="1">
      <stop offset="0" stop-color="#0b4f6c"/>
      <stop offset="0.55" stop-color="#1b8a9e"/>
      <stop offset="1" stop-color="#7fd1d8"/>
    </linearGradient>
    <linearGradient id="shade" x1="0" y1="0" x2="0" y2="1">
      <stop offset="0" stop-color="#000" stop-opacity="0"/>
      <stop offset="1" stop-color="#000" stop-opacity="0.45"/>
    </linearGradient>
  </defs>
  <rect width="400" height="300" fill="url(#g)"/>
  <circle cx="330" cy="70" r="34" fill="#fff" opacity="0.16"/>
  <path d="M0,300 L0,240 L0,224 L35,249 L70,254 L105,255 L140,236 L175,245 L210,234 L245,251 L280,248 L315,241 L350,246 L385,247 L420,228 L420,300 Z" fill="#000" opacity="0.10"/>
  <path d="M0,300 L0,205 L0,216 L35,221 L70,206 L105,223 L140,188 L175,201 L210,214 L245,183 L280,212 L315,205 L350,190 L385,183 L420,200 L420,300 Z" fill="#000" opacity="0.16"/>
  <text x="28" y="120" font-size="86" opacity="0.92">🌊</text>
  <rect width="400" height="300" fill="url(#shade)"/>
  <text x="28" y="250" fill="#fff" font-size="30" font-weight="700">上瀑布观景点</text>
  <text x="28" y="278" fill="#fff" font-size="15" opacity="0.85">Upper Falls Viewpoint</text>
</svg>
