<svg xmlns="http://www.w3.org/2000/svg" width="400" height="300" viewBox="0 0 400 300" font-family="-apple-system,'PingFang SC','Noto Sans SC',sans-serif">
  <defs>
    <linearGradient id="g" x1="0" y1="0" x2="0" y2="1">
      <stop offset="0" stop-color="#c1440e"/>
      <stop offset="0.55" stop-color="#e8743d"/>
      <stop offset="1" stop-color="#f4c675"/>
    </linearGradient>
    <linearGradient id="shade" x1="0" y1="0" x2="0" y2="1">
      <stop offset="0" stop-color="#000" stop-opacity="0"/>
      <stop offset="1" stop-color="#000" stop-opacity="0.45"/>
    </linearGradient>
  </defs>
  <rect width="400" height="300" fill="url(#g)"/>
  <circle cx="330" cy="70" r="34" fill="#fff" opacity="0.16"/>
  <path d="M0,300 L0,240 L0,228 L35,237 L70,226 L105,243 L140,240 L175,233 L210,238 L245,239 L280,252 L315,229 L350,250 L385,235 L420,232 L420,300 Z" fill="#000" opacity="0.10"/>
  <path d="M0,300 L0,205 L0,186 L35,195 L70,196 L105,225 L140,206 L175,187 L210,204 L245,201 L280,210 L315,199 L350,204 L385,185 L420,198 L420,300 Z" fill="#000" opacity="0.16"/>
  <text x="28" y="120" font-size="86" opacity="0.92">♨️</text>
  <rect width="400" height="300" fill="url(#shade)"/>
  <text x="28" y="250" fill="#fff" font-size="30" font-weight="700">绿玉泉</text>
  <text x="28" y="278" fill="#fff" font-size="15" opacity="0.85">Beryl Spring</text>
</svg>
