<svg xmlns="http://www.w3.org/2000/svg" width="400" height="300" viewBox="0 0 400 300" font-family="-apple-system,'PingFang SC','Noto Sans SC',sans-serif">
  <defs>
    <linearGradient id="g" x1="0" y1="0" x2="0" y2="1">
      <stop offset="0" stop-color="#14342b"/>
      <stop offset="0.55" stop-color="#2c6e57"/>
      <stop offset="1" stop-color="#6fae86"/>
    </linearGradient>
    <linearGradient id="shade" x1="0" y1="0" x2="0" y2="1">
      <stop offset="0" stop-color="#000" stop-opacity="0"/>
      <stop offset="1" stop-color="#000" stop-opacity="0.45"/>
    </linearGradient>
  </defs>
  <rect width="400" height="300" fill="url(#g)"/>
  <circle cx="330" cy="70" r="34" fill="#fff" opacity="0.16"/>
  <path d="M0,300 L0,240 L0,228 L35,237 L70,226 L105,243 L140,240 L175,233 L210,238 L245,239 L280,252 L315,229 L350,250 L385,235 L420,232 L420,300 Z" fill="#000" opacity="0.10"/>
  <path d="M0,300 L0,205 L0,224 L35,225 L70,194 L105,195 L140,220 L175,225 L210,222 L245,191 L280,192 L315,193 L350,198 L385,203 L420,196 L420,300 Z" fill="#000" opacity="0.16"/>
  <text x="28" y="120" font-size="86" opacity="0.92">🏞️</text>
  <rect width="400" height="300" fill="url(#shade)"/>
  <text x="28" y="250" fill="#fff" font-size="30" font-weight="700">黄石湖</text>
  <text x="28" y="278" fill="#fff" font-size="15" opacity="0.85">Yellowstone Lake</text>
</svg>
