<svg xmlns="http://www.w3.org/2000/svg" width="400" height="300" viewBox="0 0 400 300" font-family="-apple-system,'PingFang SC','Noto Sans SC',sans-serif">
  <defs>
    <linearGradient id="g" x1="0" y1="0" x2="0" y2="1">
      <stop offset="0" stop-color="#3d2c14"/>
      <stop offset="0.55" stop-color="#7a5a2e"/>
      <stop offset="1" stop-color="#c9a15a"/>
    </linearGradient>
    <linearGradient id="shade" x1="0" y1="0" x2="0" y2="1">
      <stop offset="0" stop-color="#000" stop-opacity="0"/>
      <stop offset="1" stop-color="#000" stop-opacity="0.45"/>
    </linearGradient>
  </defs>
  <rect width="400" height="300" fill="url(#g)"/>
  <circle cx="330" cy="70" r="34" fill="#fff" opacity="0.16"/>
  <path d="M0,300 L0,240 L0,248 L35,241 L70,246 L105,247 L140,228 L175,237 L210,226 L245,243 L280,240 L315,233 L350,238 L385,239 L420,252 L420,300 Z" fill="#000" opacity="0.10"/>
  <path d="M0,300 L0,205 L0,184 L35,189 L70,194 L105,199 L140,224 L175,221 L210,210 L245,207 L280,188 L315,225 L350,190 L385,187 L420,216 L420,300 Z" fill="#000" opacity="0.16"/>
  <text x="28" y="120" font-size="86" opacity="0.92">🦬</text>
  <rect width="400" height="300" fill="url(#shade)"/>
  <text x="28" y="250" fill="#fff" font-size="30" font-weight="700">勒哈迪浅滩</text>
  <text x="28" y="278" fill="#fff" font-size="15" opacity="0.85">LeHardys Rapids</text>
</svg>
