<svg xmlns="http://www.w3.org/2000/svg" width="400" height="300" viewBox="0 0 400 300" font-family="-apple-system,'PingFang SC','Noto Sans SC',sans-serif">
  <defs>
    <linearGradient id="g" x1="0" y1="0" x2="0" y2="1">
      <stop offset="0" stop-color="#4a2c5a"/>
      <stop offset="0.55" stop-color="#7d4a8c"/>
      <stop offset="1" stop-color="#c79bd6"/>
    </linearGradient>
    <linearGradient id="shade" x1="0" y1="0" x2="0" y2="1">
      <stop offset="0" stop-color="#000" stop-opacity="0"/>
      <stop offset="1" stop-color="#000" stop-opacity="0.45"/>
    </linearGradient>
  </defs>
  <rect width="400" height="300" fill="url(#g)"/>
  <circle cx="330" cy="70" r="34" fill="#fff" opacity="0.16"/>
  <path d="M0,300 L0,240 L0,231 L35,244 L70,253 L105,242 L140,227 L175,224 L210,249 L245,254 L280,255 L315,236 L350,245 L385,234 L420,251 L420,300 Z" fill="#000" opacity="0.10"/>
  <path d="M0,300 L0,205 L0,219 L35,208 L70,209 L105,226 L140,211 L175,204 L210,221 L245,186 L280,219 L315,224 L350,185 L385,194 L420,187 L420,300 Z" fill="#000" opacity="0.16"/>
  <text x="28" y="120" font-size="86" opacity="0.92">📖</text>
  <rect width="400" height="300" fill="url(#shade)"/>
  <text x="28" y="250" fill="#fff" font-size="30" font-weight="700">牵牛花池的教训</text>
  <text x="28" y="278" fill="#fff" font-size="15" opacity="0.85">Morning Glory Pool</text>
</svg>
