<svg xmlns="http://www.w3.org/2000/svg" width="400" height="300" viewBox="0 0 400 300" font-family="-apple-system,'PingFang SC','Noto Sans SC',sans-serif">
  <defs>
    <linearGradient id="g" x1="0" y1="0" x2="0" y2="1">
      <stop offset="0" stop-color="#4a2c5a"/>
      <stop offset="0.55" stop-color="#7d4a8c"/>
      <stop offset="1" stop-color="#c79bd6"/>
    </linearGradient>
    <linearGradient id="shade" x1="0" y1="0" x2="0" y2="1">
      <stop offset="0" stop-color="#000" stop-opacity="0"/>
      <stop offset="1" stop-color="#000" stop-opacity="0.45"/>
    </linearGradient>
  </defs>
  <rect width="400" height="300" fill="url(#g)"/>
  <circle cx="330" cy="70" r="34" fill="#fff" opacity="0.16"/>
  <path d="M0,300 L0,240 L0,255 L35,236 L70,245 L105,234 L140,251 L175,248 L210,241 L245,246 L280,247 L315,228 L350,237 L385,226 L420,243 L420,300 Z" fill="#000" opacity="0.10"/>
  <path d="M0,300 L0,205 L0,222 L35,203 L70,196 L105,225 L140,206 L175,215 L210,212 L245,217 L280,222 L315,215 L350,212 L385,197 L420,190 L420,300 Z" fill="#000" opacity="0.16"/>
  <text x="28" y="120" font-size="86" opacity="0.92">📖</text>
  <rect width="400" height="300" fill="url(#shade)"/>
  <text x="28" y="250" fill="#fff" font-size="30" font-weight="700">看熊的年代</text>
  <text x="28" y="278" fill="#fff" font-size="15" opacity="0.85">The Bear Feeding Shows</text>
</svg>
