<svg xmlns="http://www.w3.org/2000/svg" width="400" height="300" viewBox="0 0 400 300" font-family="-apple-system,'PingFang SC','Noto Sans SC',sans-serif">
  <defs>
    <linearGradient id="g" x1="0" y1="0" x2="0" y2="1">
      <stop offset="0" stop-color="#0b4f6c"/>
      <stop offset="0.55" stop-color="#1b8a9e"/>
      <stop offset="1" stop-color="#7fd1d8"/>
    </linearGradient>
    <linearGradient id="shade" x1="0" y1="0" x2="0" y2="1">
      <stop offset="0" stop-color="#000" stop-opacity="0"/>
      <stop offset="1" stop-color="#000" stop-opacity="0.45"/>
    </linearGradient>
  </defs>
  <rect width="400" height="300" fill="url(#g)"/>
  <circle cx="330" cy="70" r="34" fill="#fff" opacity="0.16"/>
  <path d="M0,300 L0,240 L0,226 L35,243 L70,240 L105,233 L140,238 L175,239 L210,252 L245,229 L280,250 L315,235 L350,232 L385,225 L420,230 L420,300 Z" fill="#000" opacity="0.10"/>
  <path d="M0,300 L0,205 L0,223 L35,212 L70,185 L105,190 L140,211 L175,188 L210,213 L245,226 L280,223 L315,192 L350,185 L385,202 L420,187 L420,300 Z" fill="#000" opacity="0.16"/>
  <text x="28" y="120" font-size="86" opacity="0.92">🌊</text>
  <rect width="400" height="300" fill="url(#shade)"/>
  <text x="28" y="250" fill="#fff" font-size="30" font-weight="700">塔瀑</text>
  <text x="28" y="278" fill="#fff" font-size="15" opacity="0.85">Tower Fall</text>
</svg>
