<svg xmlns="http://www.w3.org/2000/svg" width="400" height="300" viewBox="0 0 400 300" font-family="-apple-system,'PingFang SC','Noto Sans SC',sans-serif">
  <defs>
    <linearGradient id="g" x1="0" y1="0" x2="0" y2="1">
      <stop offset="0" stop-color="#c1440e"/>
      <stop offset="0.55" stop-color="#e8743d"/>
      <stop offset="1" stop-color="#f4c675"/>
    </linearGradient>
    <linearGradient id="shade" x1="0" y1="0" x2="0" y2="1">
      <stop offset="0" stop-color="#000" stop-opacity="0"/>
      <stop offset="1" stop-color="#000" stop-opacity="0.45"/>
    </linearGradient>
  </defs>
  <rect width="400" height="300" fill="url(#g)"/>
  <circle cx="330" cy="70" r="34" fill="#fff" opacity="0.16"/>
  <path d="M0,300 L0,240 L0,241 L35,246 L70,247 L105,228 L140,237 L175,226 L210,243 L245,240 L280,233 L315,238 L350,239 L385,252 L420,229 L420,300 Z" fill="#000" opacity="0.10"/>
  <path d="M0,300 L0,205 L0,223 L35,196 L70,193 L105,190 L140,183 L175,208 L210,193 L245,202 L280,219 L315,192 L350,193 L385,226 L420,199 L420,300 Z" fill="#000" opacity="0.16"/>
  <text x="28" y="120" font-size="86" opacity="0.92">♨️</text>
  <rect width="400" height="300" fill="url(#shade)"/>
  <text x="28" y="250" fill="#fff" font-size="30" font-weight="700">西拇指间歇泉盆地</text>
  <text x="28" y="278" fill="#fff" font-size="15" opacity="0.85">West Thumb Geyser Basin</text>
</svg>
