<svg xmlns="http://www.w3.org/2000/svg" viewBox="0 0 400 560" width="400" height="560" role="img" aria-hidden="true">
  <rect width="400" height="560" fill="#f5e8e0"/>
  <!-- sky -->
  <rect width="400" height="240" fill="#c98a9e"/>
  <rect y="200" width="400" height="40" fill="#c98a9e" opacity="0.35"/>
  <!-- sun -->
  <circle cx="318" cy="78" r="46" fill="#c44d2a" opacity="0.9"/>
  <circle cx="318" cy="78" r="34" fill="#c44d2a" opacity="0.55"/>
  <!-- distant mountain band -->
  <path d="M0,240 L0,195 L35,178 L78,192 L118,158 L162,172 L205,138 L248,155 L292,128 L336,148 L378,132 L400,142 L400,240 Z" fill="#8b3a62" opacity="0.88"/>
  <!-- mid ridge -->
  <path d="M0,240 L0,215 L52,205 L108,222 L158,198 L214,218 L268,192 L322,210 L372,198 L400,208 L400,240 Z" fill="#2a1820" opacity="0.14"/>
  <!-- tree line silhouettes -->
  <path d="M0,300 L18,268 L32,300 Z" fill="#2a1820" opacity="0.55"/>
  <path d="M42,300 L58,262 L74,300 Z" fill="#2a1820" opacity="0.5"/>
  <path d="M96,300 L112,255 L128,300 Z" fill="#2a1820" opacity="0.58"/>
  <path d="M148,300 L166,248 L184,300 Z" fill="#2a1820" opacity="0.52"/>
  <path d="M210,300 L228,258 L246,300 Z" fill="#2a1820" opacity="0.56"/>
  <path d="M268,300 L286,250 L304,300 Z" fill="#2a1820" opacity="0.54"/>
  <path d="M330,300 L348,260 L366,300 Z" fill="#2a1820" opacity="0.5"/>
  <path d="M378,300 L392,270 L400,300 Z" fill="#2a1820" opacity="0.48"/>
  
  <!-- rolling hills -->
  <path d="M0,360 L0,300 L48,288 L98,308 L148,282 L198,302 L248,276 L298,296 L348,278 L400,290 L400,360 Z" fill="#a87088"/>
  <path d="M0,560 L0,360 L62,348 L124,368 L186,342 L248,362 L310,336 L372,354 L400,362 L400,560 Z" fill="#8b3a62" opacity="0.62"/>
  <!-- foreground accent band -->
  <path d="M0,560 L0,430 L80,418 L160,438 L240,412 L320,432 L400,420 L400,560 Z" fill="#a87088" opacity="0.85"/>
  <!-- poster frame accent -->
  <rect x="12" y="12" width="376" height="536" fill="none" stroke="#c44d2a" stroke-width="4" opacity="0.45" rx="8"/>
</svg>
